# xmcd
#
# Track frame offsets:
#	150
#	17398
#	36024
#	54609
#	68515
#	85941
#	104076
#	121830
#	140296
#	159410
#	179629
#	198140
#	214842
#	231970
#	248864
#
# Disc length: 3605 seconds
#
# Revision: 1
# Processed by: cddbd v1.5.2PL0 Copyright (c) Steve Scherf et al.
# Submitted via: audiograbber 1.83.01
#
DISCID=c80e130f
DTITLE=LeAnn Rimes - 90303
DYEAR=2007
DGENRE=Karaoke Country
TTITLE0=Can't Fight The Moonlight
TTITLE1=Soon
TTITLE2=Some People
TTITLE3=Nothin' Bout Love Makes Sense
TTITLE4=We Can
TTITLE5=The Right Kind Of Wrong
TTITLE6=Tic Toc
TTITLE7=This Love
TTITLE8=Suddenly
TTITLE9=Written In The Stars
TTITLE10=Something's Gotta Give
TTITLE11=But I Do Love You
TTITLE12=Probably Wouldn't Be This Way
TTITLE13=Life Goes On
TTITLE14=Please Remember
EXTD=Chartbuster karaoke Country Artist Series
EXTT0=
EXTT1=
EXTT2=
EXTT3=
EXTT4=
EXTT5=
EXTT6=
EXTT7=
EXTT8=
EXTT9=
EXTT10=
EXTT11=
EXTT12=
EXTT13=
EXTT14=
PLAYORDER=
